<?xml version="1.0" standalone="no"?>
<!DOCTYPE svg PUBLIC "-//W3C//DTD SVG 20010904//EN"
 "http://www.w3.org/TR/2001/REC-SVG-20010904/DTD/svg10.dtd">
<svg version="1.0" xmlns="http://www.w3.org/2000/svg"
 width="515.000000pt" height="537.000000pt" viewBox="0 0 515.000000 537.000000"
 preserveAspectRatio="xMidYMid meet">

<g transform="translate(0.000000,537.000000) scale(0.100000,-0.100000)"
fill="#000000" stroke="none">
<path d="M2965 5000 c-126 -14 -258 -62 -372 -136 -38 -24 -408 -387 -1051
-1028 -1058 -1057 -1032 -1029 -1019 -1111 9 -55 45 -105 91 -126 50 -23 85
-24 134 -4 26 11 330 308 1027 1004 1065 1063 1028 1029 1165 1062 178 42 380
-22 500 -158 59 -67 107 -173 120 -264 15 -102 0 -192 -46 -289 -35 -72 -63
-102 -794 -835 -417 -418 -763 -770 -769 -782 -16 -32 -13 -110 5 -149 31 -65
104 -95 191 -79 34 6 122 90 808 774 742 739 773 768 840 799 144 64 293 63
430 -3 275 -133 379 -461 230 -722 -18 -31 -347 -368 -945 -968 -995 -997
-958 -956 -982 -1093 -10 -59 -9 -79 5 -138 10 -38 32 -92 49 -121 18 -30 120
-140 232 -252 164 -162 209 -201 243 -211 131 -39 251 89 202 217 -5 15 -100
118 -210 229 -120 121 -199 208 -199 219 0 12 335 355 909 930 603 604 923
931 951 974 97 146 140 289 140 471 0 259 -103 481 -301 648 -151 127 -330
193 -535 195 l-120 1 -1 121 c-1 143 -23 239 -83 359 -129 264 -370 433 -663
465 -53 6 -100 10 -104 10 -4 -1 -39 -5 -78 -9z"/>
<path d="M2985 4315 c-39 -20 -1502 -1485 -1542 -1545 -286 -428 -140 -1001
312 -1224 276 -137 591 -116 846 54 78 52 1531 1498 1554 1546 34 72 9 168
-55 212 -37 25 -124 31 -163 11 -12 -6 -355 -343 -762 -749 -452 -451 -758
-748 -785 -763 -229 -131 -512 -74 -664 133 -114 155 -133 347 -50 520 35 72
63 102 779 820 409 410 748 755 754 767 17 34 13 114 -8 153 -38 73 -138 103
-216 65z"/>
</g>
</svg>
